<svg width="36" height="37" viewBox="0 0 36 37" fill="none" xmlns="http://www.w3.org/2000/svg">
<path d="M15.6721 28.0391H19.2926C19.6032 28.0391 19.8551 27.7802 19.8551 27.4609V19.0848H21.736C22.0243 19.0848 22.266 18.8608 22.2955 18.566L22.6126 15.4028C22.629 15.24 22.5774 15.0777 22.4707 14.9562C22.364 14.8347 22.2123 14.7654 22.0531 14.7654H19.8551V13.4841C19.8551 13.2195 19.9365 13.1997 20.0609 13.1997H22.0073C22.318 13.1997 22.5698 12.9408 22.5698 12.6216V9.55026C22.5698 9.23186 22.3194 8.97344 22.0096 8.97214L19.3253 8.96094C17.4443 8.96094 16.4404 9.8115 15.9295 10.525C15.2161 11.5213 15.1096 12.6887 15.1096 13.2959V14.7653H13.9502C13.6396 14.7653 13.3877 15.0242 13.3877 15.3434V18.5066C13.3877 18.8259 13.6396 19.0848 13.9502 19.0848H15.1096V27.4609C15.1096 27.7802 15.3614 28.0391 15.6721 28.0391ZM14.5126 17.9286V15.9216H15.672C15.9827 15.9216 16.2345 15.6628 16.2345 15.3435V13.2959C16.2345 12.9212 16.2931 11.968 16.8355 11.2103C17.3548 10.485 18.1925 10.1173 19.3229 10.1173L21.4447 10.1261V12.0435H20.0608C19.3984 12.0435 18.7299 12.4889 18.7299 13.4842V15.3436C18.7299 15.6629 18.9818 15.9217 19.2924 15.9217H21.4296L21.2283 17.9287H19.2924C18.9818 17.9287 18.7299 18.1875 18.7299 18.5068V26.8828H16.2345V18.5067C16.2345 18.1875 15.9826 17.9286 15.672 17.9286H14.5126Z" fill="#A6A6A6"/>
<path d="M30.7281 5.41877C27.3284 1.92443 22.808 0 18 0C13.1923 0 8.6722 1.92443 5.27231 5.41877C1.87242 8.9131 0 13.5588 0 18.5C0 23.4421 1.87242 28.0881 5.27231 31.5821C8.67199 35.0759 13.1921 37 18 37C22.8083 37 27.3286 35.0759 30.728 31.5821C34.1277 28.0881 36 23.4422 36 18.5C36 13.5586 34.1277 8.91295 30.7281 5.41877ZM29.9326 30.7645C26.7455 34.0399 22.5078 35.8438 18 35.8438C13.4925 35.8438 9.25495 34.0399 6.06776 30.7645C2.88035 27.4888 1.125 23.1332 1.125 18.5C1.125 13.8676 2.88035 9.51232 6.06776 6.23638C9.25523 2.96036 13.4928 1.15625 18 1.15625C22.5076 1.15625 26.7453 2.96036 29.9326 6.23631C33.1198 9.51218 34.875 13.8675 34.875 18.5C34.875 23.1333 33.1198 27.4889 29.9326 30.7645Z" fill="#A6A6A6"/>
</svg>
