<svg width="36" height="37" viewBox="0 0 36 37" fill="none" xmlns="http://www.w3.org/2000/svg">
<path d="M30.7281 5.41877C27.3284 1.92443 22.808 0 18 0C13.1923 0 8.6722 1.92443 5.27231 5.41877C1.87242 8.9131 0 13.5588 0 18.5C0 23.4421 1.87242 28.0881 5.27231 31.5821C8.67199 35.0759 13.1921 37 18 37C22.8083 37 27.3286 35.0759 30.728 31.5821C34.1277 28.0881 36 23.4422 36 18.5C36 13.5587 34.1277 8.91295 30.7281 5.41877ZM29.9326 30.7645C26.7455 34.0399 22.5078 35.8438 18 35.8438C13.4925 35.8438 9.25495 34.0399 6.06776 30.7645C2.88035 27.4888 1.125 23.1332 1.125 18.5C1.125 13.8676 2.88035 9.51232 6.06776 6.23631C9.25523 2.96036 13.4928 1.15625 18 1.15625C22.5076 1.15625 26.7453 2.96036 29.9326 6.23631C33.1198 9.51218 34.875 13.8675 34.875 18.5C34.875 23.1333 33.1198 27.4889 29.9326 30.7645Z" fill="#A6A6A6"/>
<path d="M14.9882 21.8013C14.2876 22.3221 13.9018 23.0326 13.9018 23.8017C13.9018 24.5708 14.2876 25.2813 14.9882 25.8021C15.6338 26.282 16.4827 26.5463 17.3785 26.5463C18.2744 26.5463 19.1232 26.282 19.7689 25.8021C20.4694 25.2813 20.8552 24.5708 20.8552 23.8017C20.8552 23.0326 20.4694 22.3221 19.7689 21.8013C19.1232 21.3214 18.2744 21.057 17.3785 21.057C16.4827 21.057 15.6337 21.3214 14.9882 21.8013ZM19.7301 23.8017C19.7301 24.6627 18.6532 25.3901 17.3784 25.3901C16.1037 25.3901 15.0268 24.6627 15.0268 23.8017C15.0268 22.9407 16.1037 22.2133 17.3784 22.2133C18.6532 22.2133 19.7301 22.9407 19.7301 23.8017Z" fill="#A6A6A6"/>
<path d="M24.0765 10.0983C23.9908 9.87929 23.7842 9.73577 23.5545 9.73577H17.6273C16.2477 9.73577 14.8615 10.2624 13.824 11.1807C12.7628 12.1199 12.1542 13.3881 12.1542 14.6601C12.1542 17.1241 13.6802 18.9865 15.9305 19.3668C15.932 19.4037 15.9344 19.4405 15.9375 19.477C14.6789 19.6464 13.528 20.1755 12.6434 21.0012C11.6535 21.9251 11.0859 23.1387 11.0859 24.3309C11.0859 26.7006 13.6677 28.4206 17.2249 28.4206C20.2381 28.4206 23.3549 26.6371 23.3549 23.6526C23.3549 21.7421 22.8047 20.704 21.0885 19.3795L20.9855 19.3006C20.5272 18.9507 20.2958 18.7416 20.1813 18.6259C20.2451 18.5543 20.3799 18.424 20.6641 18.1957C21.848 17.2457 22.4738 16.047 22.4738 14.729C22.4738 13.9645 22.3189 13.2461 22.0226 12.6239L23.9439 10.7313C24.1096 10.5679 24.1621 10.3174 24.0765 10.0983ZM20.9294 12.0991C20.7346 12.2909 20.6998 12.5979 20.8464 12.8307C21.175 13.3522 21.3486 14.0086 21.3486 14.729C21.3486 15.6778 20.8725 16.5614 19.9713 17.2844C19.1962 17.9071 19.0066 18.1946 19.0055 18.7494C19.0054 18.8185 19.0173 18.8871 19.0407 18.9518C19.1319 19.2042 19.3834 19.5179 20.3139 20.2283L20.4146 20.3053C21.8566 21.4183 22.2298 22.1065 22.2298 23.6525C22.2298 24.9454 21.4102 25.7787 20.7226 26.2499C19.7823 26.8945 18.5074 27.2642 17.2247 27.2642C15.7642 27.2642 14.448 26.9419 13.5186 26.3566C12.922 25.9809 12.2107 25.3244 12.2107 24.3308C12.2107 22.1639 14.5097 20.6402 16.6568 20.5766C16.8444 20.571 17.017 20.4697 17.1168 20.3064C17.2166 20.143 17.2308 19.9393 17.1543 19.7631C17.0861 19.6062 17.0531 19.44 17.0531 19.255C17.0531 19.1574 17.0622 19.0569 17.08 18.9563C17.1091 18.793 17.0684 18.6247 16.9684 18.4943C16.8684 18.3639 16.7186 18.2841 16.5573 18.275C14.5966 18.1655 13.2792 16.7127 13.2792 14.66C13.2792 13.7249 13.7453 12.7761 14.5581 12.0567C15.3945 11.3164 16.5132 10.8919 17.6273 10.8919H22.1547L20.9294 12.0991Z" fill="#A6A6A6"/>
<path d="M15.9202 11.8443C15.3497 12.1406 14.9624 12.7461 14.8577 13.5057C14.762 14.1996 14.9013 14.9723 15.2499 15.6813C15.8394 16.8803 16.8602 17.6043 17.82 17.6043C18.1076 17.6043 18.3898 17.5393 18.6532 17.4025C19.7954 16.8093 20.0898 15.1238 19.3236 13.5654C18.975 12.8564 18.4524 12.2828 17.852 11.9504C17.1948 11.5866 16.4908 11.5479 15.9202 11.8443ZM17.3184 12.9684C17.7123 13.1865 18.0773 13.5942 18.3195 14.0869C18.7771 15.0176 18.6959 16.0847 18.1458 16.3705C17.5956 16.6563 16.7115 16.0905 16.2539 15.1597C16.0116 14.667 15.9086 14.1232 15.9714 13.6679C16.0022 13.4447 16.1024 13.0451 16.4276 12.8762C16.5317 12.8221 16.6406 12.8011 16.747 12.8011C16.9729 12.8012 17.1871 12.8957 17.3184 12.9684Z" fill="#A6A6A6"/>
</svg>
