<svg width="37" height="37" viewBox="0 0 37 37" fill="none" xmlns="http://www.w3.org/2000/svg">
<path d="M31.5817 5.41877C28.0875 1.92443 23.4416 0 18.5 0C13.5588 0 8.9131 1.92443 5.41877 5.41877C1.92443 8.9131 0 13.5588 0 18.5C0 23.4421 1.92443 28.0881 5.41877 31.5821C8.91288 35.0759 13.5585 37 18.5 37C23.4419 37 28.0877 35.0759 31.5816 31.5821C35.0757 28.0881 37 23.4422 37 18.5C37 13.5587 35.0757 8.91295 31.5817 5.41877ZM30.7641 30.7645C27.4885 34.0399 23.133 35.8438 18.5 35.8438C13.8673 35.8438 9.51203 34.0399 6.23631 30.7645C2.96036 27.4888 1.15625 23.1332 1.15625 18.5C1.15625 13.8676 2.96036 9.51232 6.23631 6.23631C9.51232 2.96036 13.8676 1.15625 18.5 1.15625C23.1328 1.15625 27.4883 2.96036 30.7641 6.23631C34.0398 9.51218 35.8438 13.8675 35.8438 18.5C35.8438 23.1333 34.0398 27.4889 30.7641 30.7645Z" fill="#A6A6A6"/>
<path d="M20.0769 21.938C19.6963 22.1981 19.1692 22.33 18.5101 22.33C18.0394 22.33 17.653 22.2651 17.3936 22.1428C17.1405 22.0228 16.9473 21.8761 16.8181 21.7051C16.6559 21.4921 16.4978 21.2103 16.3501 20.8719C16.1646 20.4377 15.9266 20.095 15.6407 19.8517C15.3125 19.5747 14.8974 19.4283 14.4403 19.4283C13.9023 19.4283 13.4262 19.6088 13.0637 19.9499C12.6885 20.3025 12.4902 20.7548 12.4902 21.2578C12.4902 21.9292 12.7269 22.611 13.1935 23.2836C13.6406 23.9298 14.2287 24.4522 14.9448 24.8382C15.9122 25.3515 17.135 25.6118 18.5794 25.6118C19.7789 25.6118 20.841 25.4231 21.7361 25.0511C22.6705 24.6632 23.3967 24.1088 23.8948 23.4034C24.4019 22.6871 24.6591 21.8698 24.6591 20.9743C24.6591 20.2264 24.5055 19.5743 24.2027 19.0361C23.9042 18.5054 23.4845 18.0616 22.9552 17.7168C22.4721 17.4026 21.8844 17.1335 21.2088 16.9172C20.5828 16.7163 19.8669 16.5286 19.081 16.3593C18.4832 16.2212 18.0562 16.1165 17.8088 16.0473C17.5884 15.9869 17.3702 15.9024 17.1601 15.7962C16.9929 15.7117 16.868 15.6194 16.7859 15.5184C16.751 15.476 16.7293 15.4314 16.7293 15.3398C16.7293 15.278 16.7293 15.1334 17.0514 14.9227C17.3612 14.719 17.8019 14.6157 18.3613 14.6157C19.1438 14.6157 19.4609 14.7682 19.5806 14.8593C19.8378 15.055 20.067 15.3418 20.262 15.7116C20.2657 15.7187 20.2696 15.7257 20.2736 15.7326C20.5088 16.1371 20.7234 16.4193 20.9523 16.6236C21.2506 16.8859 21.6513 17.019 22.1431 17.019C22.6805 17.019 23.1579 16.8187 23.5247 16.4389C23.8823 16.0667 24.0712 15.6144 24.0712 15.1306C24.0712 14.6855 23.9496 14.2332 23.7096 13.7858C23.4795 13.3582 23.1207 12.9517 22.6425 12.5771C22.176 12.2128 21.5921 11.9201 20.906 11.7069C20.2316 11.4985 19.4366 11.3928 18.5434 11.3928C17.4248 11.3928 16.4299 11.5512 15.5868 11.8631C14.6929 12.1925 13.9922 12.6826 13.5048 13.3191C13.002 13.9732 12.7471 14.7313 12.7471 15.5724C12.7471 16.4496 12.994 17.2042 13.4816 17.8159C13.9395 18.3885 14.5583 18.8433 15.3215 19.1682C16.0159 19.4629 16.8797 19.7216 17.8909 19.9376C18.585 20.0833 19.1469 20.2225 19.5593 20.3508C19.8863 20.4535 20.1496 20.5963 20.3389 20.7725C20.4281 20.8568 20.5194 20.9786 20.5194 21.2435C20.5194 21.4377 20.4669 21.6722 20.0769 21.938ZM21.1298 19.9289C20.8105 19.6315 20.3986 19.4023 19.9044 19.2471C19.4558 19.1075 18.8582 18.959 18.1305 18.8063C17.1931 18.606 16.4001 18.3696 15.7739 18.1039C15.1892 17.855 14.7218 17.5151 14.3853 17.0943C14.0656 16.6931 13.9035 16.181 13.9035 15.5722C13.9035 14.9919 14.0779 14.4708 14.4223 14.0226C14.7751 13.5619 15.3015 13.2003 15.9875 12.9475C16.7024 12.683 17.5623 12.5489 18.5434 12.5489C19.3209 12.5489 20.001 12.6372 20.5638 12.8111C21.1151 12.9824 21.575 13.2102 21.9302 13.4877C22.2814 13.7627 22.5375 14.0472 22.6911 14.3327C22.8398 14.6097 22.9151 14.878 22.9151 15.1304C22.9151 15.3174 22.844 15.4785 22.6921 15.6365C22.5431 15.7908 22.3687 15.8625 22.1432 15.8625C21.9464 15.8625 21.7947 15.8244 21.719 15.7579C21.5921 15.6446 21.444 15.4438 21.279 15.1611C21.0061 14.6464 20.6703 14.2352 20.2811 13.9391C19.8571 13.6161 19.2292 13.4592 18.3614 13.4592C17.5724 13.4592 16.9179 13.6265 16.4174 13.9556C15.8572 14.322 15.5732 14.7877 15.5732 15.3397C15.5732 15.6883 15.6812 15.996 15.8914 16.2506C16.0738 16.4753 16.3252 16.6695 16.6386 16.8279C16.9175 16.969 17.2084 17.0814 17.5002 17.1614C17.7659 17.2358 18.1992 17.3422 18.8251 17.4868C18.8279 17.4874 18.8308 17.4881 18.8337 17.4886C19.5842 17.6502 20.2644 17.8283 20.856 18.0182C21.434 18.2032 21.9281 18.4278 22.3245 18.6857C22.6959 18.9276 22.9887 19.2362 23.195 19.6029C23.3993 19.966 23.5029 20.4274 23.5029 20.9742C23.5029 21.6256 23.3173 22.2181 22.9512 22.7352L22.9508 22.7358C22.5804 23.2604 22.0227 23.6801 21.2926 23.9832C20.5387 24.2966 19.6259 24.4554 18.5795 24.4554C17.326 24.4554 16.2855 24.2405 15.4901 23.8185C14.9395 23.5217 14.4867 23.1204 14.144 22.625C13.8139 22.1491 13.6465 21.6891 13.6465 21.2577C13.6465 21.0744 13.7129 20.9265 13.8559 20.7922C14.0044 20.6524 14.1956 20.5844 14.4403 20.5844C14.6261 20.5844 14.7748 20.6338 14.8931 20.7336C15.0376 20.8567 15.1738 21.0615 15.2886 21.3302C15.475 21.7573 15.6801 22.1191 15.8968 22.4037C16.1382 22.7232 16.4752 22.9869 16.8993 23.1879C17.3188 23.3858 17.8607 23.4862 18.5101 23.4862C19.4063 23.4862 20.1529 23.2864 20.7287 22.893C21.357 22.4648 21.6756 21.9097 21.6756 21.2433C21.6756 20.7131 21.493 20.2717 21.1298 19.9289Z" fill="#A6A6A6"/>
<path d="M18.6049 28.5524C19.1498 28.5524 19.6964 28.5079 20.2327 28.42C21.0582 28.8269 21.9761 29.0412 22.9003 29.0412C26.2228 29.0412 28.9258 26.338 28.9258 23.0155C28.9262 22.1455 28.7454 21.3082 28.3882 20.5236C28.5136 19.8871 28.577 19.2343 28.577 18.5799C28.577 13.0817 24.1037 8.6085 18.6053 8.6085C18.1108 8.6085 17.6109 8.64579 17.1162 8.7195C16.2012 8.18849 15.1635 7.90889 14.1005 7.90889C10.7776 7.90889 8.07416 10.6127 8.07416 13.9361C8.07416 14.9325 8.32211 15.9142 8.79306 16.7893C8.68661 17.3749 8.6327 17.9761 8.6327 18.5799C8.6327 24.0788 13.1062 28.5524 18.6049 28.5524ZM14.1005 9.065C15.0193 9.065 15.9146 9.32349 16.6897 9.81259C16.8104 9.88876 16.955 9.91773 17.0957 9.89352C17.5962 9.80796 18.1041 9.7646 18.6054 9.7646C23.4662 9.7646 27.4208 13.7191 27.4208 18.5798C27.4208 19.2188 27.3526 19.8557 27.218 20.4729C27.19 20.6013 27.2066 20.7352 27.2649 20.853C27.6001 21.529 27.7699 22.2564 27.7697 23.0152C27.7697 25.7003 25.5853 27.8848 22.9004 27.8848C22.098 27.8848 21.3018 27.6852 20.5979 27.3076C20.5134 27.2622 20.4194 27.2389 20.3246 27.2389C20.2896 27.2389 20.2545 27.242 20.2196 27.2485C19.6897 27.3463 19.1464 27.396 18.6049 27.396C13.7438 27.396 9.78903 23.441 9.78903 18.5797C9.78903 17.9798 9.84901 17.3834 9.96731 16.807C9.99607 16.667 9.97193 16.5214 9.89952 16.3981C9.46181 15.6525 9.23049 14.8011 9.23049 13.9358C9.23041 11.2501 11.4151 9.065 14.1005 9.065Z" fill="#A6A6A6"/>
</svg>
