<svg width="37" height="37" viewBox="0 0 37 37" fill="none" xmlns="http://www.w3.org/2000/svg">
<path d="M31.5817 5.41877C28.0875 1.92443 23.4416 0 18.5 0C13.5588 0 8.9131 1.92443 5.41877 5.41877C1.92443 8.9131 0 13.5588 0 18.5C0 23.4421 1.92443 28.0881 5.41877 31.5821C8.91288 35.0759 13.5585 37 18.5 37C23.4419 37 28.0877 35.0759 31.5816 31.5821C35.0757 28.0881 37 23.4422 37 18.5C37 13.5587 35.0757 8.91295 31.5817 5.41877ZM30.7641 30.7645C27.4885 34.0399 23.133 35.8438 18.5 35.8438C13.8673 35.8438 9.51203 34.0399 6.23631 30.7645C2.96036 27.4888 1.15625 23.1332 1.15625 18.5C1.15625 13.8676 2.96036 9.51232 6.23631 6.23631C9.51232 2.96036 13.8676 1.15625 18.5 1.15625C23.1328 1.15625 27.4883 2.96036 30.7641 6.23631C34.0398 9.51218 35.8438 13.8675 35.8438 18.5C35.8438 23.1333 34.0398 27.4889 30.7641 30.7645Z" fill="#A6A6A6"/>
<path d="M28.4589 14.396C28.4375 14.2344 28.2302 12.7973 27.557 12.0659C26.7529 11.171 25.8379 11.0783 25.3979 11.0337C25.3595 11.0298 25.3243 11.0263 25.2925 11.0225C25.2839 11.0214 25.2753 11.0205 25.2666 11.0199C22.6105 10.814 18.6012 10.8116 18.5609 10.8116H18.552C18.5118 10.8116 14.5023 10.814 11.8469 11.0199C11.8382 11.0205 11.8295 11.0214 11.8209 11.0225C11.7893 11.0264 11.754 11.0299 11.7156 11.0337C11.2757 11.0782 10.3612 11.1708 9.55655 12.0658C8.8839 12.7969 8.67607 14.2341 8.6546 14.3958C8.65417 14.399 8.65381 14.4022 8.65337 14.4054C8.64543 14.4739 8.45905 16.1009 8.45905 17.7585V19.2988C8.45905 20.9575 8.64543 22.5839 8.65337 22.6524C8.65374 22.6555 8.65417 22.6587 8.65453 22.6618C8.67599 22.8235 8.88332 24.2602 9.55684 24.9905C10.3015 25.8182 11.2443 25.9393 11.7512 26.0045C11.8404 26.016 11.9175 26.0259 11.9701 26.0364C11.988 26.0399 12.0061 26.0427 12.0243 26.0445C13.5563 26.2014 18.3479 26.2497 18.5577 26.2517C18.598 26.2516 22.6108 26.2422 25.266 26.0387C25.2758 26.038 25.2856 26.037 25.2953 26.0357C25.3279 26.0315 25.3644 26.0278 25.4042 26.0236C25.8431 25.9778 26.7559 25.8824 27.5569 24.9908C28.2296 24.2607 28.4374 22.8244 28.4589 22.6627C28.4593 22.6595 28.4597 22.6563 28.4601 22.653C28.468 22.5846 28.6543 20.9576 28.6544 19.2995V17.7591C28.6544 16.101 28.468 14.474 28.4601 14.4055C28.4597 14.4023 28.4593 14.3992 28.4589 14.396ZM27.4981 19.2995C27.4981 20.8459 27.3232 22.4167 27.312 22.5152C27.2685 22.8364 27.0669 23.8184 26.7052 24.2088C26.703 24.2112 26.7008 24.2135 26.6988 24.2159C26.1946 24.7786 25.6466 24.8358 25.2839 24.8738C25.2406 24.8783 25.2005 24.8826 25.1639 24.8871C22.5518 25.0861 18.5953 25.0955 18.5623 25.0956C18.5133 25.0951 13.6744 25.0465 12.1664 24.8969C12.083 24.8816 11.9931 24.87 11.8985 24.8578C11.4655 24.8021 10.8724 24.7259 10.4143 24.2151C10.4122 24.2127 10.41 24.2104 10.4078 24.208C10.0864 23.8613 9.86563 22.987 9.80124 22.5144C9.78982 22.4135 9.61516 20.8446 9.61516 19.2988V17.7586C9.61516 16.2121 9.79018 14.6407 9.80124 14.5432C9.84475 14.2217 10.0465 13.239 10.4083 12.8476C10.4103 12.8454 10.4123 12.8433 10.4143 12.8411C10.9207 12.2764 11.4691 12.2209 11.8319 12.1841C11.8738 12.1799 11.9127 12.1759 11.9483 12.1717C14.559 11.9702 18.5121 11.9678 18.5518 11.9678H18.5608C18.6005 11.9678 22.5536 11.9702 25.1649 12.1717C25.2004 12.1759 25.2393 12.1799 25.2813 12.1841C25.6443 12.2208 26.1928 12.2764 26.6987 12.8409C26.7008 12.8432 26.7029 12.8454 26.7049 12.8477C27.0265 13.1952 27.2473 14.0698 27.3119 14.5435C27.3233 14.6442 27.498 16.2138 27.498 17.7591L27.4981 19.2995Z" fill="#A6A6A6"/>
<path d="M22.428 18.036L16.4765 14.465C16.2979 14.3579 16.0755 14.3551 15.8942 14.4576C15.7129 14.5602 15.6009 14.7524 15.6009 14.9606V22.1026C15.6009 22.3109 15.7129 22.5031 15.8942 22.6056C15.9826 22.6557 16.0808 22.6807 16.179 22.6807C16.282 22.6807 16.385 22.6532 16.4764 22.5983L22.4279 19.0273C22.602 18.9228 22.7086 18.7346 22.7086 18.5316C22.7086 18.3285 22.6022 18.1404 22.428 18.036ZM16.7572 21.0816V15.9818L21.007 18.5317L16.7572 21.0816Z" fill="#A6A6A6"/>
</svg>
